# Blender 3.5.0
# www.blender.org
mtllib TestArea_001.mtl
o Cube
v 10.573323 1.000000 -10.573323
v 10.573323 -1.000000 -10.573323
v 10.573323 1.000000 10.573323
v 10.573323 -1.000000 10.573323
v -10.573323 1.000000 -10.573323
v -10.573323 -1.000000 -10.573323
v -10.573323 1.000000 10.573323
v -10.573323 -1.000000 10.573323
v 9.827877 -3.345850 -19.511593
v -10.368538 1.481036 -15.513253
v 10.368538 -1.481036 -19.031847
v -9.827877 3.345850 -15.033509
v -10.573323 2.480615 20.450247
v -10.573323 4.480615 20.450247
v 10.573323 4.480615 20.450247
v 10.573323 2.480615 20.450247
v -1.448814 1.000000 3.706038
v -0.893405 1.000000 -1.791684
v -5.008286 1.000000 -1.777164
v -7.066358 1.000000 9.167912
v -1.856233 1.000000 9.126739
v 8.296055 1.066919 7.085555
v 8.305800 1.000000 1.036053
v 4.474425 1.000000 0.955651
v 4.155696 1.064891 7.902391
v -10.573323 2.480615 34.191292
v -10.573323 4.480615 34.191292
v 10.573323 4.480615 34.191292
v 10.573323 2.480615 34.191292
v 22.503605 1.000000 -10.573323
v 22.503605 -1.000000 -10.573323
v 22.503605 1.000000 10.573323
v 22.503605 -1.000000 10.573323
vn -0.0000 -0.9432 0.3324
vn -1.0000 -0.0000 -0.0000
vn -0.0000 -1.0000 -0.0000
vn -0.0000 -0.0000 1.0000
vn 0.9905 -0.1366 -0.0162
vn -0.1215 0.2802 -0.9522
vn -0.9895 0.1418 -0.0272
vn -0.1165 -0.9932 -0.0051
vn 0.1154 0.9933 -0.0056
vn -0.0000 1.0000 -0.0000
vn -0.0000 0.9432 -0.3324
vn 1.0000 -0.0000 -0.0000
vn -0.0019 1.0000 -0.0015
vn 0.0064 0.9999 0.0102
vn -0.0024 1.0000 -0.0094
vn 0.0002 0.9999 -0.0111
vn -0.0000 -0.0000 -1.0000
vt 0.625000 0.500000
vt 0.375000 0.500000
vt 0.625000 0.750000
vt 0.375000 0.750000
vt 0.625000 0.250000
vt 0.875000 0.500000
vt 0.375000 0.250000
vt 0.125000 0.500000
vt 0.625000 0.000000
vt 0.875000 0.750000
vt 0.125000 0.750000
vt 0.375000 0.000000
vt 0.375000 0.500000
vt 0.375000 0.250000
vt 0.125000 0.500000
vt 0.625000 0.500000
vt 0.625000 0.250000
vt 0.875000 0.500000
vt 0.375000 0.000000
vt 0.125000 0.750000
vt 0.875000 0.750000
vt 0.625000 0.000000
vt 0.625000 0.750000
vt 0.375000 0.750000
vt 0.767128 0.668813
vt 0.760562 0.603818
vt 0.809209 0.603990
vt 0.833540 0.733385
vt 0.771945 0.732898
vt 0.652759 0.708079
vt 0.000000 0.000000
vt 0.651807 0.637248
vt 0.000000 0.000000
vt 0.697102 0.636298
vt 0.000000 0.000000
vt 0.700678 0.718196
vt 0.000000 0.000000
vt 0.375000 1.000000
vt 0.375000 0.000000
vt 0.125000 0.750000
vt 0.875000 0.750000
vt 0.625000 1.000000
vt 0.625000 0.000000
vt 0.625000 0.750000
vt 0.375000 0.750000
vt 0.625000 0.500000
vt 0.375000 0.500000
vt 0.625000 0.750000
vt 0.375000 0.750000
s 0
usemtl Material
f 8/11/1 4/4/1 16/24/1 13/20/1
f 8/12/2 7/9/2 5/5/2 6/7/2
f 6/8/3 2/2/3 4/4/3 8/11/3
f 3/3/4 4/4/4 33/49/4 32/48/4
f 1/1/5 2/2/5 9/13/5 11/16/5
f 10/14/6 12/17/6 11/16/6 9/13/6
f 6/7/7 5/5/7 12/17/7 10/14/7
f 2/2/8 6/8/8 10/15/8 9/13/8
f 5/6/9 1/1/9 11/16/9 12/18/9
f 15/23/10 14/21/10 27/41/10 28/44/10
f 3/3/11 7/10/11 14/21/11 15/23/11
f 4/4/12 3/3/12 15/23/12 16/24/12
f 7/9/2 8/12/2 13/19/2 14/22/2
f 1/1/10 5/6/10 7/10/10 20/28/10 19/27/10 18/26/10
f 17/25/13 21/29/13 25/36/13 24/34/13 23/32/13 3/3/13 1/1/13 18/26/13
f 3/3/14 23/32/14 22/30/14 25/36/14 21/29/14 20/28/14 7/10/14
f 25/37/15 22/31/15 24/35/15
f 22/31/16 23/33/16 24/35/16
f 17/25/10 18/26/10 19/27/10 20/28/10 21/29/10
f 29/45/4 28/44/4 27/42/4 26/38/4
f 14/22/2 13/19/2 26/39/2 27/43/2
f 13/20/3 16/24/3 29/45/3 26/40/3
f 16/24/12 15/23/12 28/44/12 29/45/12
f 31/47/12 30/46/12 32/48/12 33/49/12
f 2/2/17 1/1/17 30/46/17 31/47/17
f 4/4/3 2/2/3 31/47/3 33/49/3
f 1/1/10 3/3/10 32/48/10 30/46/10
o Cube.001
v -2.750211 6.779946 7.126292
v -2.750211 -2.910938 7.126292
v -2.750211 6.779946 -0.338633
v -2.750211 -2.910938 -0.338633
v -0.750211 6.779946 7.126292
v -0.750211 -2.910938 7.126292
v -0.750211 6.779946 -0.338633
v -0.750211 -2.910938 -0.338633
v -2.750211 -2.910938 -2.284036
v -2.750211 6.779946 -2.284036
v -0.750211 6.779946 -2.284036
v -0.750211 -2.910938 -2.284036
v -10.439052 -2.910938 -0.338633
v -10.439052 6.779946 -0.338633
v -10.439052 -2.910938 -2.284036
v -10.439052 6.779946 -2.284036
v -10.562694 -2.910938 -0.338633
v -10.562694 6.779946 -0.338633
v -10.562694 -2.910938 -2.284036
v -10.562694 6.779946 -2.284036
v -10.692693 -2.910938 -0.338633
v -10.692693 6.779946 -0.338633
v -10.692693 -2.910938 -2.284036
v -10.692693 6.779946 -2.284036
vn -1.0000 -0.0000 -0.0000
vn -0.0000 -1.0000 -0.0000
vn 1.0000 -0.0000 -0.0000
vn -0.0000 -0.0000 1.0000
vn -0.0000 1.0000 -0.0000
vn -0.0000 -0.0000 -1.0000
vt 0.375000 0.000000
vt 0.375000 1.000000
vt 0.125000 0.750000
vt 0.625000 0.000000
vt 0.625000 1.000000
vt 0.875000 0.750000
vt 0.125000 0.500000
vt 0.375000 0.250000
vt 0.625000 0.250000
vt 0.875000 0.500000
vt 0.375000 0.750000
vt 0.625000 0.750000
vt 0.375000 0.500000
vt 0.625000 0.500000
vt 0.625000 0.250000
vt 0.875000 0.500000
vt 0.125000 0.500000
vt 0.375000 0.250000
vt 0.375000 0.500000
vt 0.625000 0.500000
vt 0.875000 0.500000
vt 0.625000 0.250000
vt 0.125000 0.500000
vt 0.375000 0.250000
vt 0.625000 0.250000
vt 0.875000 0.500000
vt 0.125000 0.500000
vt 0.375000 0.250000
vt 0.875000 0.500000
vt 0.625000 0.250000
vt 0.375000 0.250000
vt 0.125000 0.500000
vt 0.625000 0.250000
vt 0.875000 0.500000
vt 0.375000 0.250000
vt 0.125000 0.500000
vt 0.875000 0.500000
vt 0.625000 0.250000
vt 0.375000 0.250000
vt 0.125000 0.500000
vt 0.625000 0.250000
vt 0.875000 0.500000
vt 0.375000 0.250000
vt 0.125000 0.500000
s 0
f 34/50/18 36/57/18 37/58/18 35/53/18
f 37/59/19 42/65/19 45/69/19 41/63/19
f 40/62/20 38/60/20 39/61/20 41/63/20
f 38/60/21 34/51/21 35/54/21 39/61/21
f 36/56/22 34/52/22 38/60/22 40/62/22
f 41/63/19 39/61/19 35/55/19 37/59/19
f 43/67/23 44/68/23 45/69/23 42/64/23
f 43/66/22 49/76/22 47/72/22 36/56/22
f 41/63/20 45/69/20 44/68/20 40/62/20
f 40/62/22 44/68/22 43/66/22 36/56/22
f 49/76/22 53/85/22 51/81/22 47/72/22
f 36/57/21 47/73/21 46/71/21 37/58/21
f 42/64/23 48/74/23 49/77/23 43/67/23
f 37/59/19 46/70/19 48/75/19 42/65/19
f 52/82/23 56/90/23 57/92/23 53/84/23
f 48/74/23 52/82/23 53/84/23 49/77/23
f 46/70/19 50/78/19 52/83/19 48/75/19
f 47/73/21 51/80/21 50/79/21 46/71/21
f 55/88/18 57/92/18 56/90/18 54/87/18
f 50/78/19 54/86/19 56/91/19 52/83/19
f 51/80/21 55/88/21 54/87/21 50/79/21
f 53/85/22 57/93/22 55/89/22 51/81/22
o Cube.002
v -1.865596 8.185854 11.297885
v -1.865596 -1.505030 11.297885
v 4.074171 8.185854 15.819418
v 4.074171 -1.505030 15.819418
v -3.077003 8.185854 12.889265
v -3.077003 -1.505030 12.889265
v 2.862763 8.185854 17.410799
v 2.862763 -1.505030 17.410799
v 5.622109 -1.505030 16.997757
v 5.622109 8.185854 16.997757
v 4.410702 8.185854 18.589138
v 4.410702 -1.505030 18.589138
v 8.731332 -1.505030 9.701484
v 8.731332 8.185854 9.701484
v 10.279270 -1.505030 10.879822
v 10.279270 8.185854 10.879822
v 8.806222 -1.505030 9.603103
v 8.806222 8.185854 9.603103
v 10.354161 -1.505030 10.781442
v 10.354161 8.185854 10.781442
v 8.884963 -1.505030 9.499663
v 8.884963 8.185854 9.499663
v 10.432902 -1.505030 10.678002
v 10.432902 8.185854 10.678002
vn 0.6057 -0.0000 -0.7957
vn -0.0000 -1.0000 -0.0000
vn -0.6057 -0.0000 0.7957
vn -0.7957 -0.0000 -0.6057
vn -0.0000 1.0000 -0.0000
vn 0.7957 -0.0000 0.6057
vt 0.375000 0.000000
vt 0.375000 1.000000
vt 0.125000 0.750000
vt 0.625000 0.000000
vt 0.625000 1.000000
vt 0.875000 0.750000
vt 0.125000 0.500000
vt 0.375000 0.250000
vt 0.625000 0.250000
vt 0.875000 0.500000
vt 0.375000 0.750000
vt 0.625000 0.750000
vt 0.375000 0.500000
vt 0.625000 0.500000
vt 0.625000 0.250000
vt 0.875000 0.500000
vt 0.125000 0.500000
vt 0.375000 0.250000
vt 0.375000 0.500000
vt 0.625000 0.500000
vt 0.875000 0.500000
vt 0.625000 0.250000
vt 0.125000 0.500000
vt 0.375000 0.250000
vt 0.625000 0.250000
vt 0.875000 0.500000
vt 0.125000 0.500000
vt 0.375000 0.250000
vt 0.875000 0.500000
vt 0.625000 0.250000
vt 0.375000 0.250000
vt 0.125000 0.500000
vt 0.625000 0.250000
vt 0.875000 0.500000
vt 0.375000 0.250000
vt 0.125000 0.500000
vt 0.875000 0.500000
vt 0.625000 0.250000
vt 0.375000 0.250000
vt 0.125000 0.500000
vt 0.625000 0.250000
vt 0.875000 0.500000
vt 0.375000 0.250000
vt 0.125000 0.500000
s 0
f 58/94/24 60/101/24 61/102/24 59/97/24
f 61/103/25 66/109/25 69/113/25 65/107/25
f 64/106/26 62/104/26 63/105/26 65/107/26
f 62/104/27 58/95/27 59/98/27 63/105/27
f 60/100/28 58/96/28 62/104/28 64/106/28
f 65/107/25 63/105/25 59/99/25 61/103/25
f 67/111/29 68/112/29 69/113/29 66/108/29
f 67/110/28 73/120/28 71/116/28 60/100/28
f 65/107/26 69/113/26 68/112/26 64/106/26
f 64/106/28 68/112/28 67/110/28 60/100/28
f 73/120/28 77/129/28 75/125/28 71/116/28
f 60/101/27 71/117/27 70/115/27 61/102/27
f 66/108/29 72/118/29 73/121/29 67/111/29
f 61/103/25 70/114/25 72/119/25 66/109/25
f 76/126/29 80/134/29 81/136/29 77/128/29
f 72/118/29 76/126/29 77/128/29 73/121/29
f 70/114/25 74/122/25 76/127/25 72/119/25
f 71/117/27 75/124/27 74/123/27 70/115/27
f 79/132/24 81/136/24 80/134/24 78/131/24
f 74/122/25 78/130/25 80/135/25 76/127/25
f 75/124/27 79/132/27 78/131/27 74/123/27
f 77/129/28 81/137/28 79/133/28 75/125/28
