# Blender 3.5.0
# www.blender.org
mtllib TestArea_001.mtl
o Cube
v 10.573323 1.000000 -10.573323
v 10.573323 -1.000000 -10.573323
v 10.573323 1.000000 10.573323
v 10.573323 -1.000000 10.573323
v -10.573323 1.000000 -10.573323
v -10.573323 -1.000000 -10.573323
v -10.573323 1.000000 10.573323
v -10.573323 -1.000000 10.573323
v 9.827877 -3.345850 -19.511593
v -10.368538 1.481036 -15.513253
v 10.368538 -1.481036 -19.031847
v -9.827877 3.345850 -15.033509
v -10.573323 2.480615 20.450247
v -10.573323 4.480615 20.450247
v 10.573323 4.480615 20.450247
v 10.573323 2.480615 20.450247
v -1.448814 1.000000 3.706038
v -2.270021 8.905742 3.636389
v -0.893405 1.000000 -1.791684
v -1.799097 8.905742 -1.035850
v -4.263068 8.905742 -1.026237
v -5.008286 1.000000 -1.777164
v -7.066358 1.000000 9.167912
v -6.062177 8.905742 8.556564
v -2.608616 8.905742 8.524423
v -1.856233 1.000000 9.126739
v 8.225297 1.000000 7.027384
v 8.305800 1.000000 1.036053
v 4.474425 1.000000 0.955651
v 4.171999 1.000000 7.883161
v 8.225297 9.906868 7.027384
v 8.305800 9.906868 1.036053
v 4.474425 9.906868 0.955651
v 4.171999 9.906868 7.883161
vn -0.0000 -0.9432 0.3324
vn -1.0000 -0.0000 -0.0000
vn -0.0000 -1.0000 -0.0000
vn 1.0000 -0.0000 -0.0000
vn 0.9905 -0.1366 -0.0162
vn -0.1215 0.2802 -0.9522
vn -0.9895 0.1418 -0.0272
vn -0.1165 -0.9932 -0.0051
vn 0.1154 0.9933 -0.0056
vn -0.0000 -0.0000 1.0000
vn -0.0000 0.9432 -0.3324
vn -0.0000 1.0000 -0.0000
vn 0.9896 0.1037 0.0999
vn -0.0037 0.0948 -0.9955
vn -0.9769 0.1097 -0.1836
vn 0.0084 0.0764 0.9970
vn 0.9922 0.1018 0.0718
vn 0.9999 -0.0000 0.0134
vn 0.2066 -0.0000 0.9784
vn 0.0210 -0.0000 -0.9998
vn -0.9990 -0.0000 -0.0436
vt 0.625000 0.500000
vt 0.375000 0.500000
vt 0.625000 0.750000
vt 0.375000 0.750000
vt 0.625000 0.250000
vt 0.875000 0.500000
vt 0.375000 0.250000
vt 0.125000 0.500000
vt 0.625000 0.000000
vt 0.875000 0.750000
vt 0.125000 0.750000
vt 0.375000 0.000000
vt 0.375000 0.500000
vt 0.375000 0.250000
vt 0.125000 0.500000
vt 0.625000 0.500000
vt 0.625000 0.250000
vt 0.875000 0.500000
vt 0.125000 0.750000
vt 0.375000 1.000000
vt 0.375000 0.000000
vt 0.625000 1.000000
vt 0.875000 0.750000
vt 0.625000 0.000000
vt 0.625000 0.750000
vt 0.375000 0.750000
vt 0.767128 0.668813
vt 0.776837 0.667990
vt 0.760562 0.603818
vt 0.771269 0.612754
vt 0.800399 0.612868
vt 0.809209 0.603990
vt 0.833540 0.733385
vt 0.821668 0.726158
vt 0.780840 0.725777
vt 0.771945 0.732898
vt 0.652759 0.708079
vt 0.651807 0.637248
vt 0.697102 0.636298
vt 0.700678 0.718196
vt 0.652759 0.708079
vt 0.651807 0.637248
vt 0.697102 0.636298
vt 0.700678 0.718196
s 0
usemtl Material
f 8/11/1 4/4/1 16/26/1 13/19/1
f 8/12/2 7/9/2 5/5/2 6/7/2
f 6/8/3 2/2/3 4/4/3 8/11/3
f 2/2/4 1/1/4 3/3/4 4/4/4
f 1/1/5 2/2/5 9/13/5 11/16/5
f 10/14/6 12/17/6 11/16/6 9/13/6
f 6/7/7 5/5/7 12/17/7 10/14/7
f 2/2/8 6/8/8 10/15/8 9/13/8
f 5/6/9 1/1/9 11/16/9 12/18/9
f 16/26/10 15/25/10 14/22/10 13/20/10
f 3/3/11 7/10/11 14/23/11 15/25/11
f 4/4/4 3/3/4 15/25/4 16/26/4
f 7/9/2 8/12/2 13/21/2 14/24/2
f 1/1/12 5/6/12 7/10/12 23/33/12 22/32/12 19/29/12
f 20/30/12 21/31/12 24/34/12 25/35/12 18/28/12
f 17/27/13 19/29/13 20/30/13 18/28/13
f 19/29/14 22/32/14 21/31/14 20/30/14
f 22/32/15 23/33/15 24/34/15 21/31/15
f 23/33/16 26/36/16 25/35/16 24/34/16
f 26/36/17 17/27/17 18/28/17 25/35/17
f 17/27/12 26/36/12 30/40/12 29/39/12 28/38/12 3/3/12 1/1/12 19/29/12
f 31/41/12 32/42/12 33/43/12 34/44/12
f 3/3/12 28/38/12 27/37/12 30/40/12 26/36/12 23/33/12 7/10/12
f 27/37/18 28/38/18 32/42/18 31/41/18
f 30/40/19 27/37/19 31/41/19 34/44/19
f 28/38/20 29/39/20 33/43/20 32/42/20
f 29/39/21 30/40/21 34/44/21 33/43/21
